<mxfile host="Electron" agent="Mozilla/5.0 (Windows NT 10.0; Win64; x64) AppleWebKit/537.36 (KHTML, like Gecko) draw.io/28.1.2 Chrome/138.0.7204.243 Electron/37.4.0 Safari/537.36" version="28.1.2">
  <diagram name="PÃ¡gina-1" id="hAYQxGbdEPi77XUdaozu">
    <mxGraphModel dx="1426" dy="841" grid="1" gridSize="10" guides="1" tooltips="1" connect="1" arrows="1" fold="1" page="1" pageScale="1" pageWidth="4681" pageHeight="3300" math="0" shadow="0">
      <root>
        <mxCell id="0" />
        <mxCell id="1" parent="0" />
        <mxCell id="agd3huXuXFv1OEpQY6bV-1" value="Eventos" style="rounded=1;arcSize=10;whiteSpace=wrap;html=1;align=center;" vertex="1" parent="1">
          <mxGeometry x="690" y="320" width="100" height="40" as="geometry" />
        </mxCell>
        <mxCell id="agd3huXuXFv1OEpQY6bV-10" value="" style="edgeStyle=orthogonalEdgeStyle;rounded=0;orthogonalLoop=1;jettySize=auto;html=1;" edge="1" parent="1" source="agd3huXuXFv1OEpQY6bV-2" target="agd3huXuXFv1OEpQY6bV-9">
          <mxGeometry relative="1" as="geometry" />
        </mxCell>
        <mxCell id="agd3huXuXFv1OEpQY6bV-2" value="Estudantes" style="rounded=1;arcSize=10;whiteSpace=wrap;html=1;align=center;" vertex="1" parent="1">
          <mxGeometry x="1190" y="320" width="100" height="40" as="geometry" />
        </mxCell>
        <mxCell id="agd3huXuXFv1OEpQY6bV-7" value="" style="edgeStyle=orthogonalEdgeStyle;rounded=0;orthogonalLoop=1;jettySize=auto;html=1;" edge="1" parent="1" source="agd3huXuXFv1OEpQY6bV-4" target="agd3huXuXFv1OEpQY6bV-6">
          <mxGeometry relative="1" as="geometry" />
        </mxCell>
        <mxCell id="agd3huXuXFv1OEpQY6bV-4" value="Professor" style="rounded=1;arcSize=10;whiteSpace=wrap;html=1;align=center;" vertex="1" parent="1">
          <mxGeometry x="180" y="320" width="100" height="40" as="geometry" />
        </mxCell>
        <mxCell id="agd3huXuXFv1OEpQY6bV-13" style="edgeStyle=orthogonalEdgeStyle;rounded=0;orthogonalLoop=1;jettySize=auto;html=1;entryX=0;entryY=0.5;entryDx=0;entryDy=0;" edge="1" parent="1" source="agd3huXuXFv1OEpQY6bV-6" target="agd3huXuXFv1OEpQY6bV-1">
          <mxGeometry relative="1" as="geometry" />
        </mxCell>
        <mxCell id="agd3huXuXFv1OEpQY6bV-6" value="Organiza" style="rhombus;whiteSpace=wrap;html=1;rounded=1;arcSize=10;" vertex="1" parent="1">
          <mxGeometry x="440" y="300" width="80" height="80" as="geometry" />
        </mxCell>
        <mxCell id="agd3huXuXFv1OEpQY6bV-14" style="edgeStyle=orthogonalEdgeStyle;rounded=0;orthogonalLoop=1;jettySize=auto;html=1;entryX=1;entryY=0.5;entryDx=0;entryDy=0;" edge="1" parent="1" source="agd3huXuXFv1OEpQY6bV-9" target="agd3huXuXFv1OEpQY6bV-1">
          <mxGeometry relative="1" as="geometry" />
        </mxCell>
        <mxCell id="agd3huXuXFv1OEpQY6bV-9" value="faz a&amp;nbsp;" style="rhombus;whiteSpace=wrap;html=1;rounded=1;arcSize=10;" vertex="1" parent="1">
          <mxGeometry x="950" y="300" width="80" height="80" as="geometry" />
        </mxCell>
        <mxCell id="agd3huXuXFv1OEpQY6bV-17" style="edgeStyle=orthogonalEdgeStyle;rounded=0;orthogonalLoop=1;jettySize=auto;html=1;entryX=0.5;entryY=0;entryDx=0;entryDy=0;" edge="1" parent="1" source="agd3huXuXFv1OEpQY6bV-15" target="agd3huXuXFv1OEpQY6bV-4">
          <mxGeometry relative="1" as="geometry" />
        </mxCell>
        <mxCell id="agd3huXuXFv1OEpQY6bV-15" value="nome" style="ellipse;whiteSpace=wrap;html=1;align=center;" vertex="1" parent="1">
          <mxGeometry x="180" y="160" width="100" height="40" as="geometry" />
        </mxCell>
        <mxCell id="agd3huXuXFv1OEpQY6bV-18" style="edgeStyle=orthogonalEdgeStyle;rounded=0;orthogonalLoop=1;jettySize=auto;html=1;entryX=0.5;entryY=0;entryDx=0;entryDy=0;" edge="1" parent="1" source="agd3huXuXFv1OEpQY6bV-16" target="agd3huXuXFv1OEpQY6bV-2">
          <mxGeometry relative="1" as="geometry" />
        </mxCell>
        <mxCell id="agd3huXuXFv1OEpQY6bV-16" value="nome" style="ellipse;whiteSpace=wrap;html=1;align=center;" vertex="1" parent="1">
          <mxGeometry x="1190" y="160" width="100" height="40" as="geometry" />
        </mxCell>
        <mxCell id="agd3huXuXFv1OEpQY6bV-20" style="edgeStyle=orthogonalEdgeStyle;rounded=0;orthogonalLoop=1;jettySize=auto;html=1;entryX=0.75;entryY=0;entryDx=0;entryDy=0;" edge="1" parent="1" source="agd3huXuXFv1OEpQY6bV-19" target="agd3huXuXFv1OEpQY6bV-2">
          <mxGeometry relative="1" as="geometry" />
        </mxCell>
        <mxCell id="agd3huXuXFv1OEpQY6bV-19" value="email" style="ellipse;whiteSpace=wrap;html=1;align=center;" vertex="1" parent="1">
          <mxGeometry x="1290" y="200" width="100" height="40" as="geometry" />
        </mxCell>
        <mxCell id="agd3huXuXFv1OEpQY6bV-22" style="edgeStyle=orthogonalEdgeStyle;rounded=0;orthogonalLoop=1;jettySize=auto;html=1;entryX=0.5;entryY=0;entryDx=0;entryDy=0;" edge="1" parent="1" source="agd3huXuXFv1OEpQY6bV-21" target="agd3huXuXFv1OEpQY6bV-1">
          <mxGeometry relative="1" as="geometry" />
        </mxCell>
        <mxCell id="agd3huXuXFv1OEpQY6bV-21" value="nome" style="ellipse;whiteSpace=wrap;html=1;align=center;" vertex="1" parent="1">
          <mxGeometry x="690" y="160" width="100" height="40" as="geometry" />
        </mxCell>
        <mxCell id="agd3huXuXFv1OEpQY6bV-24" style="edgeStyle=orthogonalEdgeStyle;rounded=0;orthogonalLoop=1;jettySize=auto;html=1;entryX=0.25;entryY=0;entryDx=0;entryDy=0;" edge="1" parent="1" source="agd3huXuXFv1OEpQY6bV-23" target="agd3huXuXFv1OEpQY6bV-1">
          <mxGeometry relative="1" as="geometry" />
        </mxCell>
        <mxCell id="agd3huXuXFv1OEpQY6bV-23" value="data" style="ellipse;whiteSpace=wrap;html=1;align=center;" vertex="1" parent="1">
          <mxGeometry x="590" y="200" width="100" height="40" as="geometry" />
        </mxCell>
        <mxCell id="agd3huXuXFv1OEpQY6bV-26" style="edgeStyle=orthogonalEdgeStyle;rounded=0;orthogonalLoop=1;jettySize=auto;html=1;entryX=0.75;entryY=0;entryDx=0;entryDy=0;" edge="1" parent="1" source="agd3huXuXFv1OEpQY6bV-25" target="agd3huXuXFv1OEpQY6bV-1">
          <mxGeometry relative="1" as="geometry" />
        </mxCell>
        <mxCell id="agd3huXuXFv1OEpQY6bV-25" value="tema" style="ellipse;whiteSpace=wrap;html=1;align=center;" vertex="1" parent="1">
          <mxGeometry x="790" y="200" width="100" height="40" as="geometry" />
        </mxCell>
        <mxCell id="agd3huXuXFv1OEpQY6bV-27" value="N" style="text;html=1;align=center;verticalAlign=middle;resizable=0;points=[];autosize=1;strokeColor=none;fillColor=none;" vertex="1" parent="1">
          <mxGeometry x="275" y="320" width="30" height="30" as="geometry" />
        </mxCell>
        <mxCell id="agd3huXuXFv1OEpQY6bV-28" value="N" style="text;html=1;align=center;verticalAlign=middle;resizable=0;points=[];autosize=1;strokeColor=none;fillColor=none;" vertex="1" parent="1">
          <mxGeometry x="660" y="320" width="30" height="30" as="geometry" />
        </mxCell>
        <mxCell id="agd3huXuXFv1OEpQY6bV-29" value="N" style="text;html=1;align=center;verticalAlign=middle;resizable=0;points=[];autosize=1;strokeColor=none;fillColor=none;" vertex="1" parent="1">
          <mxGeometry x="790" y="320" width="30" height="30" as="geometry" />
        </mxCell>
        <mxCell id="agd3huXuXFv1OEpQY6bV-30" value="N" style="text;html=1;align=center;verticalAlign=middle;resizable=0;points=[];autosize=1;strokeColor=none;fillColor=none;" vertex="1" parent="1">
          <mxGeometry x="1160" y="320" width="30" height="30" as="geometry" />
        </mxCell>
        <mxCell id="agd3huXuXFv1OEpQY6bV-43" style="edgeStyle=orthogonalEdgeStyle;rounded=0;orthogonalLoop=1;jettySize=auto;html=1;entryX=0.25;entryY=1;entryDx=0;entryDy=0;" edge="1" parent="1" source="agd3huXuXFv1OEpQY6bV-31" target="agd3huXuXFv1OEpQY6bV-1">
          <mxGeometry relative="1" as="geometry" />
        </mxCell>
        <mxCell id="agd3huXuXFv1OEpQY6bV-31" value="id_evento" style="ellipse;whiteSpace=wrap;html=1;align=center;fontStyle=4" vertex="1" parent="1">
          <mxGeometry x="570" y="480" width="100" height="40" as="geometry" />
        </mxCell>
        <mxCell id="agd3huXuXFv1OEpQY6bV-34" style="edgeStyle=orthogonalEdgeStyle;rounded=0;orthogonalLoop=1;jettySize=auto;html=1;" edge="1" parent="1" source="agd3huXuXFv1OEpQY6bV-33" target="agd3huXuXFv1OEpQY6bV-2">
          <mxGeometry relative="1" as="geometry" />
        </mxCell>
        <mxCell id="agd3huXuXFv1OEpQY6bV-33" value="ra" style="ellipse;whiteSpace=wrap;html=1;align=center;fontStyle=4" vertex="1" parent="1">
          <mxGeometry x="1190" y="440" width="100" height="40" as="geometry" />
        </mxCell>
        <mxCell id="agd3huXuXFv1OEpQY6bV-36" style="edgeStyle=orthogonalEdgeStyle;rounded=0;orthogonalLoop=1;jettySize=auto;html=1;entryX=0.5;entryY=1;entryDx=0;entryDy=0;" edge="1" parent="1" source="agd3huXuXFv1OEpQY6bV-35" target="agd3huXuXFv1OEpQY6bV-4">
          <mxGeometry relative="1" as="geometry" />
        </mxCell>
        <mxCell id="agd3huXuXFv1OEpQY6bV-35" value="rp" style="ellipse;whiteSpace=wrap;html=1;align=center;fontStyle=4" vertex="1" parent="1">
          <mxGeometry x="180" y="440" width="100" height="40" as="geometry" />
        </mxCell>
        <mxCell id="agd3huXuXFv1OEpQY6bV-41" style="edgeStyle=orthogonalEdgeStyle;rounded=0;orthogonalLoop=1;jettySize=auto;html=1;entryX=0;entryY=1;entryDx=0;entryDy=0;" edge="1" parent="1" source="agd3huXuXFv1OEpQY6bV-37" target="agd3huXuXFv1OEpQY6bV-1">
          <mxGeometry relative="1" as="geometry" />
        </mxCell>
        <mxCell id="agd3huXuXFv1OEpQY6bV-37" value="nome_participantes" style="ellipse;whiteSpace=wrap;html=1;align=center;" vertex="1" parent="1">
          <mxGeometry x="570" y="400" width="120" height="40" as="geometry" />
        </mxCell>
        <mxCell id="agd3huXuXFv1OEpQY6bV-42" style="edgeStyle=orthogonalEdgeStyle;rounded=0;orthogonalLoop=1;jettySize=auto;html=1;entryX=1;entryY=1;entryDx=0;entryDy=0;" edge="1" parent="1" source="agd3huXuXFv1OEpQY6bV-39" target="agd3huXuXFv1OEpQY6bV-1">
          <mxGeometry relative="1" as="geometry" />
        </mxCell>
        <mxCell id="agd3huXuXFv1OEpQY6bV-39" value="email_participantes" style="ellipse;whiteSpace=wrap;html=1;align=center;" vertex="1" parent="1">
          <mxGeometry x="790" y="400" width="120" height="40" as="geometry" />
        </mxCell>
        <mxCell id="agd3huXuXFv1OEpQY6bV-45" style="edgeStyle=orthogonalEdgeStyle;rounded=0;orthogonalLoop=1;jettySize=auto;html=1;entryX=0.75;entryY=1;entryDx=0;entryDy=0;" edge="1" parent="1" source="agd3huXuXFv1OEpQY6bV-44" target="agd3huXuXFv1OEpQY6bV-1">
          <mxGeometry relative="1" as="geometry" />
        </mxCell>
        <mxCell id="agd3huXuXFv1OEpQY6bV-44" value="data_incricao" style="ellipse;whiteSpace=wrap;html=1;align=center;" vertex="1" parent="1">
          <mxGeometry x="800" y="480" width="100" height="40" as="geometry" />
        </mxCell>
        <mxCell id="agd3huXuXFv1OEpQY6bV-85" value="" style="edgeStyle=orthogonalEdgeStyle;rounded=0;orthogonalLoop=1;jettySize=auto;html=1;" edge="1" parent="1" source="agd3huXuXFv1OEpQY6bV-46" target="agd3huXuXFv1OEpQY6bV-84">
          <mxGeometry relative="1" as="geometry" />
        </mxCell>
        <mxCell id="agd3huXuXFv1OEpQY6bV-46" value="Eventos" style="rounded=1;arcSize=10;whiteSpace=wrap;html=1;align=center;" vertex="1" parent="1">
          <mxGeometry x="645" y="1570" width="100" height="40" as="geometry" />
        </mxCell>
        <mxCell id="agd3huXuXFv1OEpQY6bV-47" value="" style="edgeStyle=orthogonalEdgeStyle;rounded=0;orthogonalLoop=1;jettySize=auto;html=1;" edge="1" parent="1" source="agd3huXuXFv1OEpQY6bV-48" target="agd3huXuXFv1OEpQY6bV-54">
          <mxGeometry relative="1" as="geometry" />
        </mxCell>
        <mxCell id="agd3huXuXFv1OEpQY6bV-48" value="Estudantes" style="rounded=1;arcSize=10;whiteSpace=wrap;html=1;align=center;" vertex="1" parent="1">
          <mxGeometry x="1145" y="1570" width="100" height="40" as="geometry" />
        </mxCell>
        <mxCell id="agd3huXuXFv1OEpQY6bV-49" value="" style="edgeStyle=orthogonalEdgeStyle;rounded=0;orthogonalLoop=1;jettySize=auto;html=1;" edge="1" parent="1" source="agd3huXuXFv1OEpQY6bV-50" target="agd3huXuXFv1OEpQY6bV-52">
          <mxGeometry relative="1" as="geometry" />
        </mxCell>
        <mxCell id="agd3huXuXFv1OEpQY6bV-50" value="Professor" style="rounded=1;arcSize=10;whiteSpace=wrap;html=1;align=center;" vertex="1" parent="1">
          <mxGeometry x="135" y="1570" width="100" height="40" as="geometry" />
        </mxCell>
        <mxCell id="agd3huXuXFv1OEpQY6bV-51" style="edgeStyle=orthogonalEdgeStyle;rounded=0;orthogonalLoop=1;jettySize=auto;html=1;entryX=0;entryY=0.5;entryDx=0;entryDy=0;" edge="1" parent="1" source="agd3huXuXFv1OEpQY6bV-52" target="agd3huXuXFv1OEpQY6bV-46">
          <mxGeometry relative="1" as="geometry" />
        </mxCell>
        <mxCell id="agd3huXuXFv1OEpQY6bV-52" value="Organiza" style="rhombus;whiteSpace=wrap;html=1;rounded=1;arcSize=10;" vertex="1" parent="1">
          <mxGeometry x="395" y="1550" width="80" height="80" as="geometry" />
        </mxCell>
        <mxCell id="agd3huXuXFv1OEpQY6bV-53" style="edgeStyle=orthogonalEdgeStyle;rounded=0;orthogonalLoop=1;jettySize=auto;html=1;entryX=1;entryY=0.5;entryDx=0;entryDy=0;" edge="1" parent="1" source="agd3huXuXFv1OEpQY6bV-54" target="agd3huXuXFv1OEpQY6bV-46">
          <mxGeometry relative="1" as="geometry" />
        </mxCell>
        <mxCell id="agd3huXuXFv1OEpQY6bV-54" value="faz a&amp;nbsp;" style="rhombus;whiteSpace=wrap;html=1;rounded=1;arcSize=10;" vertex="1" parent="1">
          <mxGeometry x="905" y="1550" width="80" height="80" as="geometry" />
        </mxCell>
        <mxCell id="agd3huXuXFv1OEpQY6bV-55" style="edgeStyle=orthogonalEdgeStyle;rounded=0;orthogonalLoop=1;jettySize=auto;html=1;entryX=0.5;entryY=0;entryDx=0;entryDy=0;" edge="1" parent="1" source="agd3huXuXFv1OEpQY6bV-56" target="agd3huXuXFv1OEpQY6bV-50">
          <mxGeometry relative="1" as="geometry" />
        </mxCell>
        <mxCell id="agd3huXuXFv1OEpQY6bV-56" value="nome" style="ellipse;whiteSpace=wrap;html=1;align=center;" vertex="1" parent="1">
          <mxGeometry x="135" y="1410" width="100" height="40" as="geometry" />
        </mxCell>
        <mxCell id="agd3huXuXFv1OEpQY6bV-57" style="edgeStyle=orthogonalEdgeStyle;rounded=0;orthogonalLoop=1;jettySize=auto;html=1;entryX=0.5;entryY=0;entryDx=0;entryDy=0;" edge="1" parent="1" source="agd3huXuXFv1OEpQY6bV-58" target="agd3huXuXFv1OEpQY6bV-48">
          <mxGeometry relative="1" as="geometry" />
        </mxCell>
        <mxCell id="agd3huXuXFv1OEpQY6bV-58" value="nome" style="ellipse;whiteSpace=wrap;html=1;align=center;" vertex="1" parent="1">
          <mxGeometry x="1145" y="1410" width="100" height="40" as="geometry" />
        </mxCell>
        <mxCell id="agd3huXuXFv1OEpQY6bV-59" style="edgeStyle=orthogonalEdgeStyle;rounded=0;orthogonalLoop=1;jettySize=auto;html=1;entryX=0.75;entryY=0;entryDx=0;entryDy=0;" edge="1" parent="1" source="agd3huXuXFv1OEpQY6bV-60" target="agd3huXuXFv1OEpQY6bV-48">
          <mxGeometry relative="1" as="geometry" />
        </mxCell>
        <mxCell id="agd3huXuXFv1OEpQY6bV-60" value="email" style="ellipse;whiteSpace=wrap;html=1;align=center;" vertex="1" parent="1">
          <mxGeometry x="1245" y="1450" width="100" height="40" as="geometry" />
        </mxCell>
        <mxCell id="agd3huXuXFv1OEpQY6bV-61" style="edgeStyle=orthogonalEdgeStyle;rounded=0;orthogonalLoop=1;jettySize=auto;html=1;entryX=0.5;entryY=0;entryDx=0;entryDy=0;" edge="1" parent="1" source="agd3huXuXFv1OEpQY6bV-62" target="agd3huXuXFv1OEpQY6bV-46">
          <mxGeometry relative="1" as="geometry" />
        </mxCell>
        <mxCell id="agd3huXuXFv1OEpQY6bV-62" value="nome" style="ellipse;whiteSpace=wrap;html=1;align=center;" vertex="1" parent="1">
          <mxGeometry x="645" y="1410" width="100" height="40" as="geometry" />
        </mxCell>
        <mxCell id="agd3huXuXFv1OEpQY6bV-63" style="edgeStyle=orthogonalEdgeStyle;rounded=0;orthogonalLoop=1;jettySize=auto;html=1;entryX=0.25;entryY=0;entryDx=0;entryDy=0;" edge="1" parent="1" source="agd3huXuXFv1OEpQY6bV-64" target="agd3huXuXFv1OEpQY6bV-46">
          <mxGeometry relative="1" as="geometry" />
        </mxCell>
        <mxCell id="agd3huXuXFv1OEpQY6bV-64" value="data" style="ellipse;whiteSpace=wrap;html=1;align=center;" vertex="1" parent="1">
          <mxGeometry x="545" y="1450" width="100" height="40" as="geometry" />
        </mxCell>
        <mxCell id="agd3huXuXFv1OEpQY6bV-65" style="edgeStyle=orthogonalEdgeStyle;rounded=0;orthogonalLoop=1;jettySize=auto;html=1;entryX=0.75;entryY=0;entryDx=0;entryDy=0;" edge="1" parent="1" source="agd3huXuXFv1OEpQY6bV-66" target="agd3huXuXFv1OEpQY6bV-46">
          <mxGeometry relative="1" as="geometry" />
        </mxCell>
        <mxCell id="agd3huXuXFv1OEpQY6bV-66" value="tema" style="ellipse;whiteSpace=wrap;html=1;align=center;" vertex="1" parent="1">
          <mxGeometry x="745" y="1450" width="100" height="40" as="geometry" />
        </mxCell>
        <mxCell id="agd3huXuXFv1OEpQY6bV-67" value="N" style="text;html=1;align=center;verticalAlign=middle;resizable=0;points=[];autosize=1;strokeColor=none;fillColor=none;" vertex="1" parent="1">
          <mxGeometry x="230" y="1570" width="30" height="30" as="geometry" />
        </mxCell>
        <mxCell id="agd3huXuXFv1OEpQY6bV-68" value="N" style="text;html=1;align=center;verticalAlign=middle;resizable=0;points=[];autosize=1;strokeColor=none;fillColor=none;" vertex="1" parent="1">
          <mxGeometry x="615" y="1570" width="30" height="30" as="geometry" />
        </mxCell>
        <mxCell id="agd3huXuXFv1OEpQY6bV-69" value="N" style="text;html=1;align=center;verticalAlign=middle;resizable=0;points=[];autosize=1;strokeColor=none;fillColor=none;" vertex="1" parent="1">
          <mxGeometry x="745" y="1570" width="30" height="30" as="geometry" />
        </mxCell>
        <mxCell id="agd3huXuXFv1OEpQY6bV-70" value="N" style="text;html=1;align=center;verticalAlign=middle;resizable=0;points=[];autosize=1;strokeColor=none;fillColor=none;" vertex="1" parent="1">
          <mxGeometry x="1115" y="1570" width="30" height="30" as="geometry" />
        </mxCell>
        <mxCell id="agd3huXuXFv1OEpQY6bV-73" style="edgeStyle=orthogonalEdgeStyle;rounded=0;orthogonalLoop=1;jettySize=auto;html=1;" edge="1" parent="1" source="agd3huXuXFv1OEpQY6bV-74" target="agd3huXuXFv1OEpQY6bV-48">
          <mxGeometry relative="1" as="geometry" />
        </mxCell>
        <mxCell id="agd3huXuXFv1OEpQY6bV-74" value="ra" style="ellipse;whiteSpace=wrap;html=1;align=center;fontStyle=4" vertex="1" parent="1">
          <mxGeometry x="1145" y="1690" width="100" height="40" as="geometry" />
        </mxCell>
        <mxCell id="agd3huXuXFv1OEpQY6bV-75" style="edgeStyle=orthogonalEdgeStyle;rounded=0;orthogonalLoop=1;jettySize=auto;html=1;entryX=0.5;entryY=1;entryDx=0;entryDy=0;" edge="1" parent="1" source="agd3huXuXFv1OEpQY6bV-76" target="agd3huXuXFv1OEpQY6bV-50">
          <mxGeometry relative="1" as="geometry" />
        </mxCell>
        <mxCell id="agd3huXuXFv1OEpQY6bV-76" value="rp" style="ellipse;whiteSpace=wrap;html=1;align=center;fontStyle=4" vertex="1" parent="1">
          <mxGeometry x="135" y="1690" width="100" height="40" as="geometry" />
        </mxCell>
        <mxCell id="agd3huXuXFv1OEpQY6bV-87" value="" style="edgeStyle=orthogonalEdgeStyle;rounded=0;orthogonalLoop=1;jettySize=auto;html=1;" edge="1" parent="1" source="agd3huXuXFv1OEpQY6bV-84">
          <mxGeometry relative="1" as="geometry">
            <mxPoint x="695" y="1840" as="targetPoint" />
          </mxGeometry>
        </mxCell>
        <mxCell id="agd3huXuXFv1OEpQY6bV-84" value="Armazena" style="rhombus;whiteSpace=wrap;html=1;rounded=1;arcSize=10;" vertex="1" parent="1">
          <mxGeometry x="655" y="1670" width="80" height="80" as="geometry" />
        </mxCell>
        <mxCell id="agd3huXuXFv1OEpQY6bV-89" value="Registro" style="rounded=1;arcSize=10;whiteSpace=wrap;html=1;align=center;" vertex="1" parent="1">
          <mxGeometry x="645" y="1840" width="100" height="40" as="geometry" />
        </mxCell>
        <mxCell id="agd3huXuXFv1OEpQY6bV-97" style="edgeStyle=orthogonalEdgeStyle;rounded=0;orthogonalLoop=1;jettySize=auto;html=1;exitX=1;exitY=0.5;exitDx=0;exitDy=0;entryX=0.25;entryY=1;entryDx=0;entryDy=0;" edge="1" parent="1" source="agd3huXuXFv1OEpQY6bV-90" target="agd3huXuXFv1OEpQY6bV-89">
          <mxGeometry relative="1" as="geometry" />
        </mxCell>
        <mxCell id="agd3huXuXFv1OEpQY6bV-90" value="id_evento" style="ellipse;whiteSpace=wrap;html=1;align=center;fontStyle=4" vertex="1" parent="1">
          <mxGeometry x="520" y="2040" width="100" height="40" as="geometry" />
        </mxCell>
        <mxCell id="agd3huXuXFv1OEpQY6bV-94" style="edgeStyle=orthogonalEdgeStyle;rounded=0;orthogonalLoop=1;jettySize=auto;html=1;exitX=0.5;exitY=0;exitDx=0;exitDy=0;entryX=0;entryY=1;entryDx=0;entryDy=0;" edge="1" parent="1" source="agd3huXuXFv1OEpQY6bV-91" target="agd3huXuXFv1OEpQY6bV-89">
          <mxGeometry relative="1" as="geometry" />
        </mxCell>
        <mxCell id="agd3huXuXFv1OEpQY6bV-91" value="nome_participantes" style="ellipse;whiteSpace=wrap;html=1;align=center;" vertex="1" parent="1">
          <mxGeometry x="520" y="1960" width="120" height="40" as="geometry" />
        </mxCell>
        <mxCell id="agd3huXuXFv1OEpQY6bV-95" style="edgeStyle=orthogonalEdgeStyle;rounded=0;orthogonalLoop=1;jettySize=auto;html=1;entryX=1;entryY=1;entryDx=0;entryDy=0;" edge="1" parent="1" source="agd3huXuXFv1OEpQY6bV-92" target="agd3huXuXFv1OEpQY6bV-89">
          <mxGeometry relative="1" as="geometry" />
        </mxCell>
        <mxCell id="agd3huXuXFv1OEpQY6bV-92" value="email_participantes" style="ellipse;whiteSpace=wrap;html=1;align=center;" vertex="1" parent="1">
          <mxGeometry x="740" y="1960" width="120" height="40" as="geometry" />
        </mxCell>
        <mxCell id="agd3huXuXFv1OEpQY6bV-96" style="edgeStyle=orthogonalEdgeStyle;rounded=0;orthogonalLoop=1;jettySize=auto;html=1;entryX=0.75;entryY=1;entryDx=0;entryDy=0;" edge="1" parent="1" source="agd3huXuXFv1OEpQY6bV-93" target="agd3huXuXFv1OEpQY6bV-89">
          <mxGeometry relative="1" as="geometry" />
        </mxCell>
        <mxCell id="agd3huXuXFv1OEpQY6bV-93" value="data_incricao" style="ellipse;whiteSpace=wrap;html=1;align=center;" vertex="1" parent="1">
          <mxGeometry x="750" y="2040" width="100" height="40" as="geometry" />
        </mxCell>
      </root>
    </mxGraphModel>
  </diagram>
</mxfile>
